<svg width="35" height="34" viewBox="0 0 35 34" fill="none" xmlns="http://www.w3.org/2000/svg">
<path fill-rule="evenodd" clip-rule="evenodd" d="M17.43 0C7.79992 0 0 7.79992 0 17.43C0 25.1428 4.98934 31.6572 11.9178 33.9667C12.7893 34.1192 13.1161 33.5963 13.1161 33.1388C13.1161 32.7248 13.0943 31.3522 13.0943 29.8924C8.715 30.6986 7.58205 28.8249 7.23345 27.8444C7.03736 27.3433 6.18765 25.7964 5.44687 25.3824C4.83682 25.0556 3.96532 24.2495 5.42509 24.2277C6.7977 24.2059 7.77813 25.4914 8.10495 26.0143C9.67365 28.6506 12.1792 27.9098 13.1814 27.4522C13.3339 26.3193 13.7915 25.5567 14.2926 25.121C10.4144 24.6852 6.36195 23.1819 6.36195 16.5149C6.36195 14.6194 7.03736 13.0507 8.14852 11.8306C7.97422 11.3949 7.36417 9.60828 8.32282 7.21166C8.32282 7.21166 9.78258 6.75412 13.1161 8.99823C14.5105 8.60606 15.992 8.40997 17.4736 8.40997C18.9551 8.40997 20.4367 8.60606 21.8311 8.99823C25.1646 6.73234 26.6243 7.21166 26.6243 7.21166C27.583 9.60828 26.9729 11.3949 26.7986 11.8306C27.9098 13.0507 28.5852 14.5976 28.5852 16.5149C28.5852 23.2037 24.5109 24.6852 20.6328 25.121C21.2646 25.6657 21.8093 26.7115 21.8093 28.3455C21.8093 30.6768 21.7875 32.5505 21.7875 33.1388C21.7875 33.5963 22.1143 34.141 22.9858 33.9667C26.4459 32.7985 29.4526 30.5747 31.5827 27.6082C33.7127 24.6417 34.8589 21.082 34.86 17.43C34.86 7.79992 27.0601 0 17.43 0Z" fill="#D3D8E1"/>
</svg>
