<svg width="97" height="102" viewBox="0 0 97 102" fill="none" xmlns="http://www.w3.org/2000/svg">
<g filter="url(#filter0_d_76_102)">
<path fill-rule="evenodd" clip-rule="evenodd" d="M44.0833 0C67.877 0 87.1666 19.2896 87.1666 43.0833C87.1666 66.8771 67.877 86.1667 44.0833 86.1667C20.2895 86.1667 0.999962 66.8771 0.999962 43.0833C0.999962 19.2896 20.2895 0 44.0833 0ZM52.7274 30.1857C53.4408 29.4471 53.8356 28.4577 53.8267 27.4308C53.8178 26.4038 53.4058 25.4215 52.6797 24.6953C51.9535 23.9691 50.9711 23.5572 49.9442 23.5483C48.9173 23.5394 47.9279 23.9341 47.1892 24.6476L31.5225 40.3143C30.7883 41.0487 30.3758 42.0448 30.3758 43.0833C30.3758 44.1219 30.7883 45.1179 31.5225 45.8524L47.1892 61.5191C47.9279 62.2325 48.9173 62.6273 49.9442 62.6184C50.9711 62.6095 51.9535 62.1976 52.6797 61.4714C53.4058 60.7452 53.8178 59.7628 53.8267 58.7359C53.8356 57.709 53.4408 56.7196 52.7274 55.9809L39.8298 43.0833L52.7274 30.1857Z" fill="#4ECB71"/>
</g>
<defs>
<filter id="filter0_d_76_102" x="-6.10352e-05" y="0" width="96.1667" height="101.167" filterUnits="userSpaceOnUse" color-interpolation-filters="sRGB">
<feFlood flood-opacity="0" result="BackgroundImageFix"/>
<feColorMatrix in="SourceAlpha" type="matrix" values="0 0 0 0 0 0 0 0 0 0 0 0 0 0 0 0 0 0 127 0" result="hardAlpha"/>
<feOffset dx="4" dy="10"/>
<feGaussianBlur stdDeviation="2.5"/>
<feComposite in2="hardAlpha" operator="out"/>
<feColorMatrix type="matrix" values="0 0 0 0 0 0 0 0 0 0 0 0 0 0 0 0 0 0 0.25 0"/>
<feBlend mode="normal" in2="BackgroundImageFix" result="effect1_dropShadow_76_102"/>
<feBlend mode="normal" in="SourceGraphic" in2="effect1_dropShadow_76_102" result="shape"/>
</filter>
</defs>
</svg>
