<svg width="68" height="68" viewBox="0 0 68 68" fill="none" xmlns="http://www.w3.org/2000/svg">
<path fill-rule="evenodd" clip-rule="evenodd" d="M8.40911e-07 5.6811C8.40911e-07 4.17438 0.598543 2.72937 1.66395 1.66396C2.72936 0.598549 4.17437 7.57369e-06 5.68109 7.57369e-06H62.3127C63.0594 -0.00121195 63.799 0.144857 64.4892 0.42985C65.1793 0.714844 65.8065 1.13316 66.3348 1.66086C66.863 2.18856 67.282 2.81528 67.5678 3.50513C67.8535 4.19498 68.0004 4.93441 68 5.6811V62.3127C68.0008 63.0596 67.8544 63.7992 67.569 64.4894C67.2837 65.1796 66.8651 65.8067 66.3371 66.335C65.8092 66.8632 65.1823 67.2821 64.4922 67.5678C63.8022 67.8536 63.0626 68.0004 62.3158 68H5.68109C4.93478 68 4.19578 67.853 3.50632 67.5673C2.81685 67.2816 2.19044 66.8628 1.66286 66.335C1.13528 65.8071 0.71688 65.1804 0.431561 64.4908C0.146241 63.8012 -0.000405205 63.0621 8.40911e-07 62.3158V5.6811ZM26.9156 25.9265H36.1235V30.5506C37.4525 27.8924 40.8525 25.5 45.9618 25.5C55.7569 25.5 58.0782 30.7947 58.0782 40.5095V58.5047H48.1656V42.7225C48.1656 37.1898 46.8365 34.068 43.4613 34.068C38.7785 34.068 36.8313 37.434 36.8313 42.7225V58.5047H26.9156V25.9265ZM9.91564 58.0813H19.8313V25.5H9.91564V58.0782V58.0813ZM21.25 14.8735C21.2687 15.7224 21.1176 16.5666 20.8056 17.3564C20.4937 18.1462 20.0271 18.8658 19.4333 19.4728C18.8394 20.0799 18.1303 20.5622 17.3476 20.8915C16.5648 21.2208 15.7242 21.3904 14.875 21.3904C14.0258 21.3904 13.1852 21.2208 12.4024 20.8915C11.6197 20.5622 10.9106 20.0799 10.3167 19.4728C9.72291 18.8658 9.25632 18.1462 8.94435 17.3564C8.63238 16.5666 8.4813 15.7224 8.5 14.8735C8.5367 13.207 9.22446 11.6212 10.416 10.4556C11.6076 9.28998 13.2081 8.6373 14.875 8.6373C16.5419 8.6373 18.1424 9.28998 19.334 10.4556C20.5255 11.6212 21.2133 13.207 21.25 14.8735Z" fill="#0072B1"/>
</svg>
