<svg width="40" height="32" viewBox="0 0 40 32" fill="none" xmlns="http://www.w3.org/2000/svg">
<path d="M0 2.48438C0 1.82548 0.261746 1.19357 0.727656 0.727656C1.19357 0.261746 1.82548 0 2.48438 0H37.2656C37.9245 0 38.5564 0.261746 39.0223 0.727656C39.4883 1.19357 39.75 1.82548 39.75 2.48438C39.75 3.14327 39.4883 3.77518 39.0223 4.24109C38.5564 4.707 37.9245 4.96875 37.2656 4.96875H2.48438C1.82548 4.96875 1.19357 4.707 0.727656 4.24109C0.261746 3.77518 0 3.14327 0 2.48438V2.48438ZM0 15.7344C0 15.0755 0.261746 14.4436 0.727656 13.9777C1.19357 13.5117 1.82548 13.25 2.48438 13.25H37.2656C37.9245 13.25 38.5564 13.5117 39.0223 13.9777C39.4883 14.4436 39.75 15.0755 39.75 15.7344C39.75 16.3933 39.4883 17.0252 39.0223 17.4911C38.5564 17.957 37.9245 18.2188 37.2656 18.2188H2.48438C1.82548 18.2187 1.19357 17.957 0.727656 17.4911C0.261746 17.0252 0 16.3933 0 15.7344V15.7344ZM0 28.9844C0 28.3255 0.261746 27.6936 0.727656 27.2277C1.19357 26.7617 1.82548 26.5 2.48438 26.5H37.2656C37.9245 26.5 38.5564 26.7617 39.0223 27.2277C39.4883 27.6936 39.75 28.3255 39.75 28.9844C39.75 29.6433 39.4883 30.2752 39.0223 30.7411C38.5564 31.207 37.9245 31.4687 37.2656 31.4688H2.48438C1.82548 31.4687 1.19357 31.207 0.727656 30.7411C0.261746 30.2752 0 29.6433 0 28.9844V28.9844Z" fill="#43B97F"/>
</svg>
