<svg width="69" height="69" viewBox="0 0 69 69" fill="none" xmlns="http://www.w3.org/2000/svg">
<path d="M34.5 0C15.448 0 0 15.448 0 34.5C0 53.552 15.448 69 34.5 69C53.552 69 69 53.552 69 34.5C69 15.448 53.552 0 34.5 0ZM51.08 26.0059C51.1031 26.3679 51.1031 26.7452 51.1031 27.1148C51.1031 38.4198 42.4935 51.442 26.7606 51.442C21.909 51.442 17.4117 50.0327 13.6229 47.6069C14.316 47.6839 14.9782 47.7147 15.6867 47.7147C19.6912 47.7147 23.3722 46.3594 26.3062 44.0645C22.5482 43.9875 19.3908 41.5232 18.3127 38.1348C19.6296 38.3273 20.8155 38.3273 22.1709 37.9808C20.2358 37.5877 18.4966 36.5368 17.2486 35.0066C16.0006 33.4764 15.3208 31.5614 15.3248 29.5868V29.479C16.4568 30.1182 17.7891 30.5109 19.1829 30.5648C18.0112 29.7839 17.0502 28.726 16.3853 27.4847C15.7203 26.2435 15.3719 24.8573 15.371 23.4492C15.371 21.8551 15.7868 20.3997 16.5338 19.1367C18.6816 21.7807 21.3617 23.9432 24.4 25.4835C27.4383 27.0239 30.7667 27.9077 34.1689 28.0775C32.9598 22.2633 37.3031 17.558 42.5243 17.558C44.9886 17.558 47.2065 18.59 48.7698 20.2533C50.7027 19.8914 52.5509 19.1675 54.1989 18.1972C53.5597 20.1763 52.2198 21.8474 50.4408 22.9025C52.1658 22.7176 53.8292 22.2402 55.3694 21.5702C54.2066 23.2798 52.7511 24.7969 51.08 26.0059Z" fill="#1DA1F2"/>
</svg>
